<mxfile host="app.diagrams.net" modified="2023-05-28T20:59:10.692Z" agent="Mozilla/5.0 (X11; Linux x86_64) AppleWebKit/537.36 (KHTML, like Gecko) Chrome/113.0.0.0 Safari/537.36" etag="LzlfOhdQs3ZWvrDDcSTH" version="21.3.4" type="device">
  <diagram name="PÃ¡gina-1" id="xCnVwpvF0Ga-Pms2gv7o">
    <mxGraphModel dx="2219" dy="1333" grid="1" gridSize="10" guides="1" tooltips="1" connect="1" arrows="1" fold="1" page="1" pageScale="1" pageWidth="1169" pageHeight="827" math="0" shadow="0">
      <root>
        <mxCell id="0" />
        <mxCell id="1" parent="0" />
        <mxCell id="rRDzNoxIAxwm0NthPRPA-2" value="User" style="rounded=0;whiteSpace=wrap;html=1;strokeWidth=2;fontStyle=1;labelBackgroundColor=none;labelBorderColor=none;spacingLeft=0;spacingTop=0;spacing=0;fontSize=9;" parent="1" vertex="1">
          <mxGeometry x="-480" y="-493" width="80" height="40" as="geometry" />
        </mxCell>
        <mxCell id="rRDzNoxIAxwm0NthPRPA-3" value="Classroom" style="rounded=0;whiteSpace=wrap;html=1;strokeWidth=2;fontStyle=1;labelBackgroundColor=none;labelBorderColor=none;spacingLeft=0;spacingTop=0;spacing=0;fontSize=9;" parent="1" vertex="1">
          <mxGeometry x="-480" y="-253" width="80" height="40" as="geometry" />
        </mxCell>
        <mxCell id="rRDzNoxIAxwm0NthPRPA-5" value="Investiment" style="rounded=0;whiteSpace=wrap;html=1;strokeWidth=2;fontStyle=1;labelBackgroundColor=none;labelBorderColor=none;spacingLeft=0;spacingTop=0;spacing=0;fontSize=9;" parent="1" vertex="1">
          <mxGeometry x="-640" y="-613" width="80" height="40" as="geometry" />
        </mxCell>
        <mxCell id="rRDzNoxIAxwm0NthPRPA-6" value="Account" style="rounded=0;whiteSpace=wrap;html=1;strokeWidth=2;fontStyle=1;labelBackgroundColor=none;labelBorderColor=none;spacingLeft=0;spacingTop=0;spacing=0;fontSize=9;" parent="1" vertex="1">
          <mxGeometry x="-800" y="-493" width="80" height="40" as="geometry" />
        </mxCell>
        <mxCell id="rRDzNoxIAxwm0NthPRPA-8" value="Role" style="ellipse;whiteSpace=wrap;html=1;strokeWidth=2;fontStyle=1;labelBackgroundColor=none;labelBorderColor=none;spacingLeft=0;spacingTop=0;spacing=0;fontSize=9;" parent="1" vertex="1">
          <mxGeometry x="-320" y="-373" width="80" height="40" as="geometry" />
        </mxCell>
        <mxCell id="rRDzNoxIAxwm0NthPRPA-11" value="Name" style="ellipse;whiteSpace=wrap;html=1;strokeWidth=2;fontStyle=1;labelBackgroundColor=none;labelBorderColor=none;spacingLeft=0;spacingTop=0;spacing=0;fontSize=9;" parent="1" vertex="1">
          <mxGeometry x="-320" y="-313" width="80" height="40" as="geometry" />
        </mxCell>
        <mxCell id="rRDzNoxIAxwm0NthPRPA-13" value="&lt;u style=&quot;font-size: 9px;&quot;&gt;Email&lt;/u&gt;" style="ellipse;whiteSpace=wrap;html=1;strokeWidth=2;fontStyle=1;labelBackgroundColor=none;labelBorderColor=none;spacingLeft=0;spacingTop=0;spacing=0;fontSize=9;" parent="1" vertex="1">
          <mxGeometry x="-320" y="-553" width="80" height="40" as="geometry" />
        </mxCell>
        <mxCell id="rRDzNoxIAxwm0NthPRPA-15" value="&lt;u style=&quot;font-size: 9px;&quot;&gt;CPF&lt;/u&gt;" style="ellipse;whiteSpace=wrap;html=1;strokeWidth=2;fontStyle=1;labelBackgroundColor=none;labelBorderColor=none;spacingLeft=0;spacingTop=0;spacing=0;fontSize=9;" parent="1" vertex="1">
          <mxGeometry x="-320" y="-493" width="80" height="40" as="geometry" />
        </mxCell>
        <mxCell id="rRDzNoxIAxwm0NthPRPA-17" value="Password" style="ellipse;whiteSpace=wrap;html=1;strokeWidth=2;fontStyle=1;labelBackgroundColor=none;labelBorderColor=none;spacingLeft=0;spacingTop=0;spacing=0;fontSize=9;" parent="1" vertex="1">
          <mxGeometry x="-320" y="-433" width="80" height="40" as="geometry" />
        </mxCell>
        <mxCell id="rRDzNoxIAxwm0NthPRPA-19" value="Active?" style="ellipse;whiteSpace=wrap;html=1;strokeWidth=2;fontStyle=1;labelBackgroundColor=none;labelBorderColor=none;spacingLeft=0;spacingTop=0;spacing=0;fontSize=9;" parent="1" vertex="1">
          <mxGeometry x="-640" y="-343" width="80" height="40" as="geometry" />
        </mxCell>
        <mxCell id="rRDzNoxIAxwm0NthPRPA-23" value="&lt;u style=&quot;font-size: 9px;&quot;&gt;Name&lt;/u&gt;" style="ellipse;whiteSpace=wrap;html=1;strokeWidth=2;fontStyle=1;labelBackgroundColor=none;labelBorderColor=none;spacingLeft=0;spacingTop=0;spacing=0;fontSize=9;" parent="1" vertex="1">
          <mxGeometry x="-640" y="-283" width="80" height="40" as="geometry" />
        </mxCell>
        <mxCell id="rRDzNoxIAxwm0NthPRPA-28" value="Has" style="shape=rhombus;perimeter=rhombusPerimeter;whiteSpace=wrap;html=1;align=center;strokeWidth=2;fontStyle=1;labelBackgroundColor=none;labelBorderColor=none;spacingLeft=0;spacingTop=0;spacing=0;fontSize=9;" parent="1" vertex="1">
          <mxGeometry x="-480" y="-373" width="80" height="40" as="geometry" />
        </mxCell>
        <mxCell id="rRDzNoxIAxwm0NthPRPA-29" value="Balance" style="ellipse;whiteSpace=wrap;html=1;strokeWidth=2;fontStyle=1;labelBackgroundColor=none;labelBorderColor=none;spacingLeft=0;spacingTop=0;spacing=0;fontSize=9;" parent="1" vertex="1">
          <mxGeometry x="-800" y="-613" width="80" height="40" as="geometry" />
        </mxCell>
        <mxCell id="rRDzNoxIAxwm0NthPRPA-37" value="Attached" style="shape=rhombus;perimeter=rhombusPerimeter;whiteSpace=wrap;html=1;align=center;strokeWidth=2;fontStyle=1;labelBackgroundColor=none;labelBorderColor=none;spacingLeft=0;spacingTop=0;spacing=0;fontSize=9;" parent="1" vertex="1">
          <mxGeometry x="-640" y="-493" width="80" height="40" as="geometry" />
        </mxCell>
        <mxCell id="rRDzNoxIAxwm0NthPRPA-38" value="" style="edgeStyle=orthogonalEdgeStyle;fontSize=9;html=1;endArrow=ERmandOne;rounded=0;exitX=0;exitY=0.5;exitDx=0;exitDy=0;entryX=1;entryY=0.5;entryDx=0;entryDy=0;strokeWidth=2;fontStyle=1;labelBackgroundColor=none;labelBorderColor=none;spacingLeft=0;spacingTop=0;spacing=0;" parent="1" source="rRDzNoxIAxwm0NthPRPA-37" target="rRDzNoxIAxwm0NthPRPA-6" edge="1">
          <mxGeometry width="100" height="100" relative="1" as="geometry">
            <mxPoint x="-780" y="-313" as="sourcePoint" />
            <mxPoint x="-760" y="-443" as="targetPoint" />
          </mxGeometry>
        </mxCell>
        <mxCell id="rRDzNoxIAxwm0NthPRPA-39" value="" style="edgeStyle=orthogonalEdgeStyle;fontSize=9;html=1;endArrow=ERmandOne;rounded=0;exitX=1;exitY=0.5;exitDx=0;exitDy=0;entryX=0;entryY=0.5;entryDx=0;entryDy=0;strokeWidth=2;fontStyle=1;labelBackgroundColor=none;labelBorderColor=none;spacingLeft=0;spacingTop=0;spacing=0;" parent="1" source="rRDzNoxIAxwm0NthPRPA-37" target="rRDzNoxIAxwm0NthPRPA-2" edge="1">
          <mxGeometry width="100" height="100" relative="1" as="geometry">
            <mxPoint x="-440" y="-383" as="sourcePoint" />
            <mxPoint x="-430" y="-443" as="targetPoint" />
          </mxGeometry>
        </mxCell>
        <mxCell id="rRDzNoxIAxwm0NthPRPA-40" value="" style="edgeStyle=orthogonalEdgeStyle;fontSize=9;html=1;endArrow=ERzeroToOne;rounded=0;exitX=0.5;exitY=1;exitDx=0;exitDy=0;entryX=0.5;entryY=0;entryDx=0;entryDy=0;endFill=0;strokeWidth=2;fontStyle=1;labelBackgroundColor=none;labelBorderColor=none;spacingLeft=0;spacingTop=0;spacing=0;" parent="1" source="rRDzNoxIAxwm0NthPRPA-28" target="rRDzNoxIAxwm0NthPRPA-3" edge="1">
          <mxGeometry width="100" height="100" relative="1" as="geometry">
            <mxPoint x="-340" y="-163" as="sourcePoint" />
            <mxPoint x="-440" y="-163" as="targetPoint" />
          </mxGeometry>
        </mxCell>
        <mxCell id="rRDzNoxIAxwm0NthPRPA-41" value="" style="edgeStyle=orthogonalEdgeStyle;fontSize=9;html=1;endArrow=ERoneToMany;rounded=0;entryX=0.5;entryY=1;entryDx=0;entryDy=0;exitX=0.5;exitY=0;exitDx=0;exitDy=0;endFill=0;strokeWidth=2;fontStyle=1;labelBackgroundColor=none;labelBorderColor=none;spacingLeft=0;spacingTop=0;spacing=0;" parent="1" source="rRDzNoxIAxwm0NthPRPA-28" target="rRDzNoxIAxwm0NthPRPA-2" edge="1">
          <mxGeometry width="100" height="100" relative="1" as="geometry">
            <mxPoint x="-320" y="-353" as="sourcePoint" />
            <mxPoint x="-370" y="-303" as="targetPoint" />
            <Array as="points" />
          </mxGeometry>
        </mxCell>
        <mxCell id="rRDzNoxIAxwm0NthPRPA-43" value="Minimum_amount" style="ellipse;whiteSpace=wrap;html=1;strokeWidth=2;fontStyle=1;labelBackgroundColor=none;labelBorderColor=none;spacingLeft=0;spacingTop=0;spacing=0;fontSize=9;" parent="1" vertex="1">
          <mxGeometry x="-690" y="-733" width="80" height="40" as="geometry" />
        </mxCell>
        <mxCell id="rRDzNoxIAxwm0NthPRPA-48" value="&lt;u style=&quot;font-size: 9px;&quot;&gt;Token&lt;/u&gt;" style="ellipse;whiteSpace=wrap;html=1;strokeWidth=2;fontStyle=1;labelBackgroundColor=none;labelBorderColor=none;spacingLeft=0;spacingTop=0;spacing=0;fontSize=9;" parent="1" vertex="1">
          <mxGeometry x="-960" y="-133" width="80" height="40" as="geometry" />
        </mxCell>
        <mxCell id="rRDzNoxIAxwm0NthPRPA-53" value="Name" style="ellipse;whiteSpace=wrap;html=1;strokeWidth=2;fontStyle=1;labelBackgroundColor=none;labelBorderColor=none;spacingLeft=0;spacingTop=0;spacing=0;fontSize=9;" parent="1" vertex="1">
          <mxGeometry x="-790" y="-733" width="80" height="40" as="geometry" />
        </mxCell>
        <mxCell id="rRDzNoxIAxwm0NthPRPA-55" value="Rendimento" style="ellipse;whiteSpace=wrap;html=1;strokeWidth=2;fontStyle=1;labelBackgroundColor=none;labelBorderColor=none;spacingLeft=0;spacingTop=0;spacing=0;fontSize=9;" parent="1" vertex="1">
          <mxGeometry x="-490" y="-733" width="80" height="40" as="geometry" />
        </mxCell>
        <mxCell id="rRDzNoxIAxwm0NthPRPA-56" value="" style="endArrow=none;html=1;rounded=1;entryX=0.5;entryY=1;entryDx=0;entryDy=0;exitX=0.5;exitY=0;exitDx=0;exitDy=0;strokeWidth=2;edgeStyle=orthogonalEdgeStyle;endFill=0;jumpStyle=none;fontStyle=1;labelBackgroundColor=none;labelBorderColor=none;spacingLeft=0;spacingTop=0;spacing=0;fontSize=9;" parent="1" source="rRDzNoxIAxwm0NthPRPA-5" target="rRDzNoxIAxwm0NthPRPA-57" edge="1">
          <mxGeometry width="50" height="50" relative="1" as="geometry">
            <mxPoint x="-50" y="-783" as="sourcePoint" />
            <mxPoint x="-185" y="-723" as="targetPoint" />
            <Array as="points">
              <mxPoint x="-600" y="-653" />
              <mxPoint x="-850" y="-653" />
            </Array>
          </mxGeometry>
        </mxCell>
        <mxCell id="rRDzNoxIAxwm0NthPRPA-57" value="Expiration_date" style="ellipse;whiteSpace=wrap;html=1;strokeWidth=2;fontStyle=1;labelBackgroundColor=none;labelBorderColor=none;spacingLeft=0;spacingTop=0;spacing=0;fontSize=9;" parent="1" vertex="1">
          <mxGeometry x="-890" y="-733" width="80" height="40" as="geometry" />
        </mxCell>
        <mxCell id="rRDzNoxIAxwm0NthPRPA-62" value="Invest" style="shape=rhombus;perimeter=rhombusPerimeter;whiteSpace=wrap;html=1;align=center;strokeWidth=2;fontStyle=1;labelBackgroundColor=none;labelBorderColor=none;spacingLeft=0;spacingTop=0;spacing=0;fontSize=9;" parent="1" vertex="1">
          <mxGeometry x="-480" y="-613" width="80" height="40" as="geometry" />
        </mxCell>
        <mxCell id="rRDzNoxIAxwm0NthPRPA-63" value="" style="edgeStyle=orthogonalEdgeStyle;fontSize=9;html=1;endArrow=ERoneToMany;rounded=0;exitX=0.5;exitY=1;exitDx=0;exitDy=0;entryX=0.5;entryY=0;entryDx=0;entryDy=0;endFill=0;strokeWidth=2;fontStyle=1;labelBackgroundColor=none;labelBorderColor=none;spacingLeft=0;spacingTop=0;spacing=0;" parent="1" source="rRDzNoxIAxwm0NthPRPA-62" target="rRDzNoxIAxwm0NthPRPA-2" edge="1">
          <mxGeometry width="100" height="100" relative="1" as="geometry">
            <mxPoint x="-410" y="-554" as="sourcePoint" />
            <mxPoint x="-300" y="-554" as="targetPoint" />
            <Array as="points" />
          </mxGeometry>
        </mxCell>
        <mxCell id="rRDzNoxIAxwm0NthPRPA-64" value="" style="edgeStyle=orthogonalEdgeStyle;fontSize=9;html=1;endArrow=ERzeroToMany;rounded=0;exitX=0;exitY=0.5;exitDx=0;exitDy=0;entryX=1;entryY=0.5;entryDx=0;entryDy=0;endFill=0;strokeWidth=2;fontStyle=1;labelBackgroundColor=none;labelBorderColor=none;spacingLeft=0;spacingTop=0;spacing=0;" parent="1" source="rRDzNoxIAxwm0NthPRPA-62" target="rRDzNoxIAxwm0NthPRPA-5" edge="1">
          <mxGeometry width="100" height="100" relative="1" as="geometry">
            <mxPoint x="-350" y="-863" as="sourcePoint" />
            <mxPoint x="-370" y="-773" as="targetPoint" />
            <Array as="points" />
          </mxGeometry>
        </mxCell>
        <mxCell id="rRDzNoxIAxwm0NthPRPA-78" value="Start date" style="ellipse;whiteSpace=wrap;html=1;strokeWidth=2;fontStyle=1;labelBackgroundColor=none;labelBorderColor=none;spacingLeft=0;spacingTop=0;spacing=0;fontSize=9;" parent="1" vertex="1">
          <mxGeometry x="-640" y="-223" width="80" height="40" as="geometry" />
        </mxCell>
        <mxCell id="rRDzNoxIAxwm0NthPRPA-80" value="End date" style="ellipse;whiteSpace=wrap;html=1;strokeWidth=2;fontStyle=1;labelBackgroundColor=none;labelBorderColor=none;spacingLeft=0;spacingTop=0;spacing=0;fontSize=9;" parent="1" vertex="1">
          <mxGeometry x="-640" y="-163" width="80" height="40" as="geometry" />
        </mxCell>
        <mxCell id="rRDzNoxIAxwm0NthPRPA-83" value="Transaction" style="rounded=0;whiteSpace=wrap;html=1;strokeWidth=2;fontStyle=1;labelBackgroundColor=none;labelBorderColor=none;spacingLeft=0;spacingTop=0;spacing=0;fontSize=9;" parent="1" vertex="1">
          <mxGeometry x="-800" y="-253" width="80" height="40" as="geometry" />
        </mxCell>
        <mxCell id="rRDzNoxIAxwm0NthPRPA-84" value="Has" style="shape=rhombus;perimeter=rhombusPerimeter;whiteSpace=wrap;html=1;align=center;strokeWidth=2;fontStyle=1;labelBackgroundColor=none;labelBorderColor=none;spacingLeft=0;spacingTop=0;spacing=0;fontSize=9;" parent="1" vertex="1">
          <mxGeometry x="-800" y="-373" width="80" height="40" as="geometry" />
        </mxCell>
        <mxCell id="rRDzNoxIAxwm0NthPRPA-85" value="" style="edgeStyle=orthogonalEdgeStyle;fontSize=9;html=1;endArrow=ERzeroToMany;rounded=0;exitX=0.5;exitY=1;exitDx=0;exitDy=0;entryX=0.5;entryY=0;entryDx=0;entryDy=0;endFill=0;strokeWidth=2;fontStyle=1;labelBackgroundColor=none;labelBorderColor=none;spacingLeft=0;spacingTop=0;spacing=0;" parent="1" source="rRDzNoxIAxwm0NthPRPA-84" target="rRDzNoxIAxwm0NthPRPA-83" edge="1">
          <mxGeometry width="100" height="100" relative="1" as="geometry">
            <mxPoint x="-825" y="-163" as="sourcePoint" />
            <mxPoint x="-855" y="-113" as="targetPoint" />
            <Array as="points" />
          </mxGeometry>
        </mxCell>
        <mxCell id="rRDzNoxIAxwm0NthPRPA-86" value="" style="edgeStyle=orthogonalEdgeStyle;fontSize=9;html=1;endArrow=ERmandOne;rounded=0;entryX=0.5;entryY=1;entryDx=0;entryDy=0;exitX=0.5;exitY=0;exitDx=0;exitDy=0;endFill=0;strokeWidth=2;fontStyle=1;labelBackgroundColor=none;labelBorderColor=none;spacingLeft=0;spacingTop=0;spacing=0;" parent="1" source="rRDzNoxIAxwm0NthPRPA-84" target="rRDzNoxIAxwm0NthPRPA-6" edge="1">
          <mxGeometry width="100" height="100" relative="1" as="geometry">
            <mxPoint x="-805" y="-353" as="sourcePoint" />
            <mxPoint x="-855" y="-413" as="targetPoint" />
            <Array as="points" />
          </mxGeometry>
        </mxCell>
        <mxCell id="rRDzNoxIAxwm0NthPRPA-88" value="Value" style="ellipse;whiteSpace=wrap;html=1;strokeWidth=2;fontStyle=1;labelBackgroundColor=none;labelBorderColor=none;spacingLeft=0;spacingTop=0;spacing=0;fontSize=9;" parent="1" vertex="1">
          <mxGeometry x="-960" y="-373" width="80" height="40" as="geometry" />
        </mxCell>
        <mxCell id="rRDzNoxIAxwm0NthPRPA-90" value="Receiver" style="ellipse;whiteSpace=wrap;html=1;strokeWidth=2;fontStyle=1;labelBackgroundColor=none;labelBorderColor=none;spacingLeft=0;spacingTop=0;spacing=0;fontSize=9;" parent="1" vertex="1">
          <mxGeometry x="-960" y="-193" width="80" height="40" as="geometry" />
        </mxCell>
        <mxCell id="rRDzNoxIAxwm0NthPRPA-93" value="Sender" style="ellipse;whiteSpace=wrap;html=1;strokeWidth=2;fontStyle=1;labelBackgroundColor=none;labelBorderColor=none;spacingLeft=0;spacingTop=0;spacing=0;fontSize=9;" parent="1" vertex="1">
          <mxGeometry x="-960" y="-313" width="80" height="40" as="geometry" />
        </mxCell>
        <mxCell id="rRDzNoxIAxwm0NthPRPA-100" value="Status" style="ellipse;whiteSpace=wrap;html=1;strokeWidth=2;fontStyle=1;labelBackgroundColor=none;labelBorderColor=none;spacingLeft=0;spacingTop=0;spacing=0;fontSize=9;" parent="1" vertex="1">
          <mxGeometry x="-960" y="-253" width="80" height="40" as="geometry" />
        </mxCell>
        <mxCell id="rRDzNoxIAxwm0NthPRPA-103" value="Profit" style="ellipse;whiteSpace=wrap;html=1;strokeWidth=2;fontStyle=1;labelBackgroundColor=none;labelBorderColor=none;spacingLeft=0;spacingTop=0;spacing=0;fontSize=9;" parent="1" vertex="1">
          <mxGeometry x="-590" y="-733" width="80" height="40" as="geometry" />
        </mxCell>
        <mxCell id="rRDzNoxIAxwm0NthPRPA-105" value="Premium?" style="ellipse;whiteSpace=wrap;html=1;strokeWidth=2;fontStyle=1;labelBackgroundColor=none;labelBorderColor=none;spacingLeft=0;spacingTop=0;spacing=0;fontSize=9;" parent="1" vertex="1">
          <mxGeometry x="-390" y="-733" width="80" height="40" as="geometry" />
        </mxCell>
        <mxCell id="rRDzNoxIAxwm0NthPRPA-113" value="Initial_amount" style="ellipse;whiteSpace=wrap;html=1;strokeWidth=2;fontStyle=1;labelBackgroundColor=none;labelBorderColor=none;spacingLeft=0;spacingTop=0;spacing=0;fontSize=9;" parent="1" vertex="1">
          <mxGeometry x="-320" y="-613" width="80" height="40" as="geometry" />
        </mxCell>
        <mxCell id="bBa70tzZPiEDhObl991k-2" value="" style="endArrow=none;html=1;rounded=1;entryX=0.5;entryY=1;entryDx=0;entryDy=0;strokeWidth=2;edgeStyle=orthogonalEdgeStyle;endFill=0;jumpStyle=none;fontStyle=1;labelBackgroundColor=none;labelBorderColor=none;spacingLeft=0;spacingTop=0;spacing=0;fontSize=9;exitX=0.5;exitY=0;exitDx=0;exitDy=0;" parent="1" source="rRDzNoxIAxwm0NthPRPA-5" target="rRDzNoxIAxwm0NthPRPA-43" edge="1">
          <mxGeometry width="50" height="50" relative="1" as="geometry">
            <mxPoint x="-520" y="-683" as="sourcePoint" />
            <mxPoint x="-700" y="-688" as="targetPoint" />
            <Array as="points">
              <mxPoint x="-600" y="-653" />
              <mxPoint x="-650" y="-653" />
            </Array>
          </mxGeometry>
        </mxCell>
        <mxCell id="bBa70tzZPiEDhObl991k-3" value="" style="endArrow=none;html=1;rounded=1;entryX=0.5;entryY=1;entryDx=0;entryDy=0;strokeWidth=2;edgeStyle=orthogonalEdgeStyle;endFill=0;jumpStyle=none;fontStyle=1;labelBackgroundColor=none;labelBorderColor=none;spacingLeft=0;spacingTop=0;spacing=0;fontSize=9;exitX=0.5;exitY=0;exitDx=0;exitDy=0;" parent="1" source="rRDzNoxIAxwm0NthPRPA-5" target="rRDzNoxIAxwm0NthPRPA-103" edge="1">
          <mxGeometry width="50" height="50" relative="1" as="geometry">
            <mxPoint x="-405" y="-718" as="sourcePoint" />
            <mxPoint x="-405" y="-828" as="targetPoint" />
            <Array as="points">
              <mxPoint x="-600" y="-653" />
              <mxPoint x="-550" y="-653" />
            </Array>
          </mxGeometry>
        </mxCell>
        <mxCell id="bBa70tzZPiEDhObl991k-4" value="" style="endArrow=none;html=1;rounded=1;entryX=0.5;entryY=1;entryDx=0;entryDy=0;strokeWidth=2;edgeStyle=orthogonalEdgeStyle;endFill=0;jumpStyle=none;fontStyle=1;labelBackgroundColor=none;labelBorderColor=none;spacingLeft=0;spacingTop=0;spacing=0;fontSize=9;exitX=0.5;exitY=0;exitDx=0;exitDy=0;" parent="1" source="rRDzNoxIAxwm0NthPRPA-5" target="rRDzNoxIAxwm0NthPRPA-55" edge="1">
          <mxGeometry width="50" height="50" relative="1" as="geometry">
            <mxPoint x="-500" y="-663" as="sourcePoint" />
            <mxPoint x="-500" y="-773" as="targetPoint" />
            <Array as="points">
              <mxPoint x="-600" y="-653" />
              <mxPoint x="-450" y="-653" />
            </Array>
          </mxGeometry>
        </mxCell>
        <mxCell id="bBa70tzZPiEDhObl991k-5" value="" style="endArrow=none;html=1;rounded=1;entryX=0.5;entryY=1;entryDx=0;entryDy=0;strokeWidth=2;edgeStyle=orthogonalEdgeStyle;endFill=0;jumpStyle=none;fontStyle=1;labelBackgroundColor=none;labelBorderColor=none;spacingLeft=0;spacingTop=0;spacing=0;fontSize=9;exitX=0.5;exitY=0;exitDx=0;exitDy=0;" parent="1" source="rRDzNoxIAxwm0NthPRPA-5" target="rRDzNoxIAxwm0NthPRPA-105" edge="1">
          <mxGeometry width="50" height="50" relative="1" as="geometry">
            <mxPoint x="-490" y="-653" as="sourcePoint" />
            <mxPoint x="-490" y="-763" as="targetPoint" />
            <Array as="points">
              <mxPoint x="-600" y="-653" />
              <mxPoint x="-350" y="-653" />
            </Array>
          </mxGeometry>
        </mxCell>
        <mxCell id="bBa70tzZPiEDhObl991k-6" value="" style="endArrow=none;html=1;rounded=1;entryX=0.5;entryY=1;entryDx=0;entryDy=0;strokeWidth=2;edgeStyle=orthogonalEdgeStyle;endFill=0;jumpStyle=none;fontStyle=1;labelBackgroundColor=none;labelBorderColor=none;spacingLeft=0;spacingTop=0;spacing=0;fontSize=9;exitX=0.5;exitY=0;exitDx=0;exitDy=0;" parent="1" source="rRDzNoxIAxwm0NthPRPA-5" target="rRDzNoxIAxwm0NthPRPA-53" edge="1">
          <mxGeometry width="50" height="50" relative="1" as="geometry">
            <mxPoint x="-770" y="-668" as="sourcePoint" />
            <mxPoint x="-770" y="-778" as="targetPoint" />
            <Array as="points">
              <mxPoint x="-600" y="-653" />
              <mxPoint x="-750" y="-653" />
            </Array>
          </mxGeometry>
        </mxCell>
        <mxCell id="bBa70tzZPiEDhObl991k-7" value="" style="endArrow=none;html=1;rounded=1;entryX=0;entryY=0.5;entryDx=0;entryDy=0;strokeWidth=2;edgeStyle=orthogonalEdgeStyle;endFill=0;jumpStyle=none;fontStyle=1;labelBackgroundColor=none;labelBorderColor=none;spacingLeft=0;spacingTop=0;spacing=0;fontSize=9;exitX=1;exitY=0.5;exitDx=0;exitDy=0;" parent="1" source="rRDzNoxIAxwm0NthPRPA-62" target="rRDzNoxIAxwm0NthPRPA-113" edge="1">
          <mxGeometry width="50" height="50" relative="1" as="geometry">
            <mxPoint x="-370" y="-593" as="sourcePoint" />
            <mxPoint x="-100" y="-658" as="targetPoint" />
            <Array as="points">
              <mxPoint x="-330" y="-593" />
              <mxPoint x="-330" y="-593" />
            </Array>
          </mxGeometry>
        </mxCell>
        <mxCell id="bBa70tzZPiEDhObl991k-8" value="" style="endArrow=none;html=1;rounded=1;entryX=0;entryY=0.5;entryDx=0;entryDy=0;strokeWidth=2;edgeStyle=orthogonalEdgeStyle;endFill=0;jumpStyle=none;fontStyle=1;labelBackgroundColor=none;labelBorderColor=none;spacingLeft=0;spacingTop=0;spacing=0;fontSize=9;exitX=1;exitY=0.5;exitDx=0;exitDy=0;" parent="1" source="rRDzNoxIAxwm0NthPRPA-2" target="rRDzNoxIAxwm0NthPRPA-13" edge="1">
          <mxGeometry width="50" height="50" relative="1" as="geometry">
            <mxPoint x="-310" y="-483" as="sourcePoint" />
            <mxPoint x="-230" y="-483" as="targetPoint" />
            <Array as="points">
              <mxPoint x="-360" y="-473" />
              <mxPoint x="-360" y="-533" />
            </Array>
          </mxGeometry>
        </mxCell>
        <mxCell id="bBa70tzZPiEDhObl991k-9" value="" style="endArrow=none;html=1;rounded=1;entryX=0;entryY=0.5;entryDx=0;entryDy=0;strokeWidth=2;edgeStyle=orthogonalEdgeStyle;endFill=0;jumpStyle=none;fontStyle=1;labelBackgroundColor=none;labelBorderColor=none;spacingLeft=0;spacingTop=0;spacing=0;fontSize=9;exitX=1;exitY=0.5;exitDx=0;exitDy=0;" parent="1" source="rRDzNoxIAxwm0NthPRPA-2" target="rRDzNoxIAxwm0NthPRPA-8" edge="1">
          <mxGeometry width="50" height="50" relative="1" as="geometry">
            <mxPoint x="-390" y="-463" as="sourcePoint" />
            <mxPoint x="-190" y="-600" as="targetPoint" />
            <Array as="points">
              <mxPoint x="-360" y="-473" />
              <mxPoint x="-360" y="-353" />
            </Array>
          </mxGeometry>
        </mxCell>
        <mxCell id="bBa70tzZPiEDhObl991k-10" value="" style="endArrow=none;html=1;rounded=1;strokeWidth=2;edgeStyle=orthogonalEdgeStyle;endFill=0;jumpStyle=none;fontStyle=1;labelBackgroundColor=none;labelBorderColor=none;spacingLeft=0;spacingTop=0;spacing=0;fontSize=9;exitX=1;exitY=0.5;exitDx=0;exitDy=0;entryX=0;entryY=0.5;entryDx=0;entryDy=0;" parent="1" source="rRDzNoxIAxwm0NthPRPA-2" target="rRDzNoxIAxwm0NthPRPA-15" edge="1">
          <mxGeometry width="50" height="50" relative="1" as="geometry">
            <mxPoint x="-410" y="-398.75" as="sourcePoint" />
            <mxPoint x="-214" y="-487.25" as="targetPoint" />
            <Array as="points">
              <mxPoint x="-350" y="-473" />
              <mxPoint x="-350" y="-473" />
            </Array>
          </mxGeometry>
        </mxCell>
        <mxCell id="bBa70tzZPiEDhObl991k-12" value="" style="endArrow=none;html=1;rounded=1;strokeWidth=2;edgeStyle=orthogonalEdgeStyle;endFill=0;jumpStyle=none;fontStyle=1;labelBackgroundColor=none;labelBorderColor=none;spacingLeft=0;spacingTop=0;spacing=0;fontSize=9;exitX=1;exitY=0.5;exitDx=0;exitDy=0;entryX=0;entryY=0.5;entryDx=0;entryDy=0;" parent="1" source="rRDzNoxIAxwm0NthPRPA-2" target="rRDzNoxIAxwm0NthPRPA-17" edge="1">
          <mxGeometry width="50" height="50" relative="1" as="geometry">
            <mxPoint x="-420" y="-413" as="sourcePoint" />
            <mxPoint x="-210" y="-433" as="targetPoint" />
            <Array as="points">
              <mxPoint x="-360" y="-473" />
              <mxPoint x="-360" y="-413" />
            </Array>
          </mxGeometry>
        </mxCell>
        <mxCell id="bBa70tzZPiEDhObl991k-14" value="" style="endArrow=none;html=1;rounded=1;strokeWidth=2;edgeStyle=orthogonalEdgeStyle;endFill=0;jumpStyle=none;fontStyle=1;labelBackgroundColor=none;labelBorderColor=none;spacingLeft=0;spacingTop=0;spacing=0;fontSize=9;exitX=1;exitY=0.5;exitDx=0;exitDy=0;entryX=0;entryY=0.5;entryDx=0;entryDy=0;" parent="1" source="rRDzNoxIAxwm0NthPRPA-2" target="rRDzNoxIAxwm0NthPRPA-11" edge="1">
          <mxGeometry width="50" height="50" relative="1" as="geometry">
            <mxPoint x="-420" y="-413" as="sourcePoint" />
            <mxPoint x="-216" y="-310" as="targetPoint" />
            <Array as="points">
              <mxPoint x="-360" y="-473" />
              <mxPoint x="-360" y="-293" />
            </Array>
          </mxGeometry>
        </mxCell>
        <mxCell id="bBa70tzZPiEDhObl991k-15" value="" style="endArrow=none;html=1;rounded=1;strokeWidth=2;edgeStyle=orthogonalEdgeStyle;endFill=0;jumpStyle=none;fontStyle=1;labelBackgroundColor=none;labelBorderColor=none;spacingLeft=0;spacingTop=0;spacing=0;fontSize=9;exitX=0.5;exitY=0;exitDx=0;exitDy=0;entryX=0.5;entryY=1;entryDx=0;entryDy=0;" parent="1" source="rRDzNoxIAxwm0NthPRPA-6" target="rRDzNoxIAxwm0NthPRPA-29" edge="1">
          <mxGeometry width="50" height="50" relative="1" as="geometry">
            <mxPoint x="-760" y="-543" as="sourcePoint" />
            <mxPoint x="-750" y="-553" as="targetPoint" />
            <Array as="points" />
          </mxGeometry>
        </mxCell>
        <mxCell id="bBa70tzZPiEDhObl991k-16" value="" style="endArrow=none;html=1;rounded=1;strokeWidth=2;edgeStyle=orthogonalEdgeStyle;endFill=0;jumpStyle=none;fontStyle=1;labelBackgroundColor=none;labelBorderColor=none;spacingLeft=0;spacingTop=0;spacing=0;fontSize=9;exitX=1;exitY=0.5;exitDx=0;exitDy=0;entryX=0;entryY=0.5;entryDx=0;entryDy=0;" parent="1" source="rRDzNoxIAxwm0NthPRPA-19" target="rRDzNoxIAxwm0NthPRPA-3" edge="1">
          <mxGeometry width="50" height="50" relative="1" as="geometry">
            <mxPoint x="-550" y="-313" as="sourcePoint" />
            <mxPoint x="-510" y="-223" as="targetPoint" />
            <Array as="points">
              <mxPoint x="-520" y="-323" />
              <mxPoint x="-520" y="-233" />
            </Array>
          </mxGeometry>
        </mxCell>
        <mxCell id="bBa70tzZPiEDhObl991k-17" value="" style="endArrow=none;html=1;rounded=1;strokeWidth=2;edgeStyle=orthogonalEdgeStyle;endFill=0;jumpStyle=none;fontStyle=1;labelBackgroundColor=none;labelBorderColor=none;spacingLeft=0;spacingTop=0;spacing=0;fontSize=9;exitX=1;exitY=0.5;exitDx=0;exitDy=0;entryX=0;entryY=0.5;entryDx=0;entryDy=0;" parent="1" source="rRDzNoxIAxwm0NthPRPA-23" target="rRDzNoxIAxwm0NthPRPA-3" edge="1">
          <mxGeometry width="50" height="50" relative="1" as="geometry">
            <mxPoint x="-580" y="-318" as="sourcePoint" />
            <mxPoint x="-500" y="-228" as="targetPoint" />
            <Array as="points">
              <mxPoint x="-520" y="-263" />
              <mxPoint x="-520" y="-233" />
            </Array>
          </mxGeometry>
        </mxCell>
        <mxCell id="bBa70tzZPiEDhObl991k-18" value="" style="endArrow=none;html=1;rounded=1;strokeWidth=2;edgeStyle=orthogonalEdgeStyle;endFill=0;jumpStyle=none;fontStyle=1;labelBackgroundColor=none;labelBorderColor=none;spacingLeft=0;spacingTop=0;spacing=0;fontSize=9;exitX=1;exitY=0.5;exitDx=0;exitDy=0;entryX=0;entryY=0.5;entryDx=0;entryDy=0;" parent="1" source="rRDzNoxIAxwm0NthPRPA-78" target="rRDzNoxIAxwm0NthPRPA-3" edge="1">
          <mxGeometry width="50" height="50" relative="1" as="geometry">
            <mxPoint x="-550" y="-203" as="sourcePoint" />
            <mxPoint x="-470" y="-113" as="targetPoint" />
            <Array as="points">
              <mxPoint x="-520" y="-203" />
              <mxPoint x="-520" y="-233" />
            </Array>
          </mxGeometry>
        </mxCell>
        <mxCell id="bBa70tzZPiEDhObl991k-19" value="" style="endArrow=none;html=1;rounded=1;strokeWidth=2;edgeStyle=orthogonalEdgeStyle;endFill=0;jumpStyle=none;fontStyle=1;labelBackgroundColor=none;labelBorderColor=none;spacingLeft=0;spacingTop=0;spacing=0;fontSize=9;exitX=1;exitY=0.5;exitDx=0;exitDy=0;entryX=0;entryY=0.5;entryDx=0;entryDy=0;" parent="1" source="rRDzNoxIAxwm0NthPRPA-80" target="rRDzNoxIAxwm0NthPRPA-3" edge="1">
          <mxGeometry width="50" height="50" relative="1" as="geometry">
            <mxPoint x="-550" y="-143" as="sourcePoint" />
            <mxPoint x="-470" y="-173" as="targetPoint" />
            <Array as="points">
              <mxPoint x="-520" y="-143" />
              <mxPoint x="-520" y="-233" />
            </Array>
          </mxGeometry>
        </mxCell>
        <mxCell id="bBa70tzZPiEDhObl991k-20" value="" style="endArrow=none;html=1;rounded=1;strokeWidth=2;edgeStyle=orthogonalEdgeStyle;endFill=0;jumpStyle=none;fontStyle=1;labelBackgroundColor=none;labelBorderColor=none;spacingLeft=0;spacingTop=0;spacing=0;fontSize=9;exitX=1;exitY=0.5;exitDx=0;exitDy=0;entryX=0;entryY=0.5;entryDx=0;entryDy=0;" parent="1" source="rRDzNoxIAxwm0NthPRPA-48" target="rRDzNoxIAxwm0NthPRPA-83" edge="1">
          <mxGeometry width="50" height="50" relative="1" as="geometry">
            <mxPoint x="-850" y="-233" as="sourcePoint" />
            <mxPoint x="-770" y="-263" as="targetPoint" />
            <Array as="points">
              <mxPoint x="-840" y="-113" />
              <mxPoint x="-840" y="-233" />
            </Array>
          </mxGeometry>
        </mxCell>
        <mxCell id="bBa70tzZPiEDhObl991k-21" value="" style="endArrow=none;html=1;rounded=1;strokeWidth=2;edgeStyle=orthogonalEdgeStyle;endFill=0;jumpStyle=none;fontStyle=1;labelBackgroundColor=none;labelBorderColor=none;spacingLeft=0;spacingTop=0;spacing=0;fontSize=9;exitX=1;exitY=0.5;exitDx=0;exitDy=0;entryX=0;entryY=0.5;entryDx=0;entryDy=0;" parent="1" source="rRDzNoxIAxwm0NthPRPA-90" target="rRDzNoxIAxwm0NthPRPA-83" edge="1">
          <mxGeometry width="50" height="50" relative="1" as="geometry">
            <mxPoint x="-870" y="-173" as="sourcePoint" />
            <mxPoint x="-790" y="-293" as="targetPoint" />
            <Array as="points">
              <mxPoint x="-840" y="-173" />
              <mxPoint x="-840" y="-233" />
            </Array>
          </mxGeometry>
        </mxCell>
        <mxCell id="bBa70tzZPiEDhObl991k-22" value="" style="endArrow=none;html=1;rounded=1;strokeWidth=2;edgeStyle=orthogonalEdgeStyle;endFill=0;jumpStyle=none;fontStyle=1;labelBackgroundColor=none;labelBorderColor=none;spacingLeft=0;spacingTop=0;spacing=0;fontSize=9;exitX=1;exitY=0.5;exitDx=0;exitDy=0;entryX=0;entryY=0.5;entryDx=0;entryDy=0;" parent="1" source="rRDzNoxIAxwm0NthPRPA-100" target="rRDzNoxIAxwm0NthPRPA-83" edge="1">
          <mxGeometry width="50" height="50" relative="1" as="geometry">
            <mxPoint x="-870" y="-233" as="sourcePoint" />
            <mxPoint x="-790" y="-293" as="targetPoint" />
            <Array as="points">
              <mxPoint x="-830" y="-233" />
              <mxPoint x="-830" y="-233" />
            </Array>
          </mxGeometry>
        </mxCell>
        <mxCell id="bBa70tzZPiEDhObl991k-23" value="" style="endArrow=none;html=1;rounded=1;strokeWidth=2;edgeStyle=orthogonalEdgeStyle;endFill=0;jumpStyle=none;fontStyle=1;labelBackgroundColor=none;labelBorderColor=none;spacingLeft=0;spacingTop=0;spacing=0;fontSize=9;exitX=1;exitY=0.5;exitDx=0;exitDy=0;entryX=0;entryY=0.5;entryDx=0;entryDy=0;" parent="1" source="rRDzNoxIAxwm0NthPRPA-93" target="rRDzNoxIAxwm0NthPRPA-83" edge="1">
          <mxGeometry width="50" height="50" relative="1" as="geometry">
            <mxPoint x="-870" y="-293.14" as="sourcePoint" />
            <mxPoint x="-790" y="-293.14" as="targetPoint" />
            <Array as="points">
              <mxPoint x="-840" y="-293" />
              <mxPoint x="-840" y="-233" />
            </Array>
          </mxGeometry>
        </mxCell>
        <mxCell id="bBa70tzZPiEDhObl991k-24" value="" style="endArrow=none;html=1;rounded=1;strokeWidth=2;edgeStyle=orthogonalEdgeStyle;endFill=0;jumpStyle=none;fontStyle=1;labelBackgroundColor=none;labelBorderColor=none;spacingLeft=0;spacingTop=0;spacing=0;fontSize=9;exitX=1;exitY=0.5;exitDx=0;exitDy=0;entryX=0;entryY=0.5;entryDx=0;entryDy=0;" parent="1" source="rRDzNoxIAxwm0NthPRPA-88" target="rRDzNoxIAxwm0NthPRPA-83" edge="1">
          <mxGeometry width="50" height="50" relative="1" as="geometry">
            <mxPoint x="-870" y="-353.14" as="sourcePoint" />
            <mxPoint x="-790" y="-353.14" as="targetPoint" />
            <Array as="points">
              <mxPoint x="-840" y="-353" />
              <mxPoint x="-840" y="-233" />
            </Array>
          </mxGeometry>
        </mxCell>
        <mxCell id="bBa70tzZPiEDhObl991k-26" value="" style="ellipse;whiteSpace=wrap;html=1;align=center;fontFamily=Helvetica;fontStyle=1;labelBackgroundColor=none;labelBorderColor=none;fontSize=10;rounded=0;strokeWidth=2;shadow=0;spacing=1;fillColor=none;" parent="1" vertex="1">
          <mxGeometry x="-220" y="-358" width="10" height="10" as="geometry" />
        </mxCell>
        <mxCell id="bBa70tzZPiEDhObl991k-29" value="" style="ellipse;whiteSpace=wrap;html=1;align=center;fontFamily=Helvetica;fontStyle=1;labelBackgroundColor=none;labelBorderColor=none;fontSize=10;rounded=0;strokeWidth=2;shadow=0;spacing=1;fillColor=none;" parent="1" vertex="1">
          <mxGeometry x="-220" y="-383" width="10" height="10" as="geometry" />
        </mxCell>
        <mxCell id="bBa70tzZPiEDhObl991k-30" value="" style="ellipse;whiteSpace=wrap;html=1;align=center;fontFamily=Helvetica;fontStyle=1;labelBackgroundColor=none;labelBorderColor=none;fontSize=10;rounded=0;strokeWidth=2;shadow=0;spacing=1;fillColor=none;" parent="1" vertex="1">
          <mxGeometry x="-220" y="-333" width="10" height="10" as="geometry" />
        </mxCell>
        <mxCell id="bBa70tzZPiEDhObl991k-31" value="" style="endArrow=none;html=1;rounded=1;strokeWidth=2;edgeStyle=orthogonalEdgeStyle;endFill=0;jumpStyle=none;fontStyle=1;labelBackgroundColor=none;labelBorderColor=none;spacingLeft=0;spacingTop=0;spacing=0;fontSize=9;exitX=1;exitY=0.5;exitDx=0;exitDy=0;entryX=0;entryY=0.5;entryDx=0;entryDy=0;" parent="1" source="rRDzNoxIAxwm0NthPRPA-8" target="bBa70tzZPiEDhObl991k-29" edge="1">
          <mxGeometry width="50" height="50" relative="1" as="geometry">
            <mxPoint x="-190" y="-343" as="sourcePoint" />
            <mxPoint x="-110" y="-343" as="targetPoint" />
            <Array as="points">
              <mxPoint x="-230" y="-353" />
              <mxPoint x="-230" y="-378" />
            </Array>
          </mxGeometry>
        </mxCell>
        <mxCell id="bBa70tzZPiEDhObl991k-32" value="" style="endArrow=none;html=1;rounded=1;strokeWidth=2;edgeStyle=orthogonalEdgeStyle;endFill=0;jumpStyle=none;fontStyle=1;labelBackgroundColor=none;labelBorderColor=none;spacingLeft=0;spacingTop=0;spacing=0;fontSize=9;entryX=0;entryY=0.5;entryDx=0;entryDy=0;exitX=1;exitY=0.5;exitDx=0;exitDy=0;" parent="1" source="rRDzNoxIAxwm0NthPRPA-8" target="bBa70tzZPiEDhObl991k-26" edge="1">
          <mxGeometry width="50" height="50" relative="1" as="geometry">
            <mxPoint x="-220" y="-353" as="sourcePoint" />
            <mxPoint x="-220" y="-348" as="targetPoint" />
            <Array as="points" />
          </mxGeometry>
        </mxCell>
        <mxCell id="bBa70tzZPiEDhObl991k-33" value="" style="endArrow=none;html=1;rounded=1;strokeWidth=2;edgeStyle=orthogonalEdgeStyle;endFill=0;jumpStyle=none;fontStyle=1;labelBackgroundColor=none;labelBorderColor=none;spacingLeft=0;spacingTop=0;spacing=0;fontSize=9;entryX=0;entryY=0.5;entryDx=0;entryDy=0;" parent="1" source="rRDzNoxIAxwm0NthPRPA-8" target="bBa70tzZPiEDhObl991k-30" edge="1">
          <mxGeometry width="50" height="50" relative="1" as="geometry">
            <mxPoint x="-230" y="-343" as="sourcePoint" />
            <mxPoint x="-210" y="-343" as="targetPoint" />
            <Array as="points" />
          </mxGeometry>
        </mxCell>
        <mxCell id="bBa70tzZPiEDhObl991k-36" value="Free" style="text;whiteSpace=wrap;html=1;fontSize=16;align=left;verticalAlign=middle;rotation=0;" parent="1" vertex="1">
          <mxGeometry x="-205" y="-383" width="80" height="10" as="geometry" />
        </mxCell>
        <mxCell id="bBa70tzZPiEDhObl991k-37" value="Premium" style="text;whiteSpace=wrap;html=1;fontSize=16;align=left;verticalAlign=middle;rotation=0;" parent="1" vertex="1">
          <mxGeometry x="-205" y="-358" width="80" height="10" as="geometry" />
        </mxCell>
        <mxCell id="bBa70tzZPiEDhObl991k-38" value="Administrator" style="text;whiteSpace=wrap;html=1;fontSize=16;align=left;verticalAlign=middle;rotation=0;" parent="1" vertex="1">
          <mxGeometry x="-205" y="-333" width="80" height="10" as="geometry" />
        </mxCell>
      </root>
    </mxGraphModel>
  </diagram>
</mxfile>
